<svg xmlns="http://www.w3.org/2000/svg" viewBox="0 0 991.76 439.98"><defs><style>.cls-1{isolation:isolate;}.cls-2{fill:#0a60d6;}.cls-3{fill:#35e2b3;}.cls-4{fill:#fff;}.cls-5{fill:#1067dc;}.cls-6{fill:#26d2a1;}.cls-7{fill:#f1f2f2;}.cls-8{fill:#e9e9ea;mix-blend-mode:multiply;}.cls-9{fill:#231f20;}</style></defs><title>pr.police_logos</title><g class="cls-1"><g id="Layer_1" data-name="Layer 1"><polygon class="cls-2" points="183.16 160.16 183.16 244.51 216.09 261.82 216.21 261.88 216.18 261.76 209.89 225.08 236.6 199.04 236.63 199.02 236.59 199.01 199.68 193.65 183.16 160.16"/><path class="cls-3" d="M151.94,316.56V306h31.22V272.51h0a55.9,55.9,0,0,1-32.94-10.68l-.11.06,0-.13A56.17,56.17,0,0,1,129.71,199l0,0h0a56.19,56.19,0,0,1,53.44-38.85h0V126.64h-45V116.11h45V77c-27.84-.07-55.13-1.89-63.32-4.72L77.63,114.47A57.27,57.27,0,0,1,99,150.82c7.13,41.32-21.36,94.51-21.37,132.48,0,65,98.77,50.86,105.53,84.42h0V316.56Z"/><circle class="cls-4" cx="183.15" cy="160.16"/><path class="cls-4" d="M183.15,160.16A56.19,56.19,0,0,0,129.72,199l36.91-5.36Zm0,84.35-32.94,17.32a55.9,55.9,0,0,0,32.94,10.68h0v-28ZM129.71,199a56.17,56.17,0,0,0,20.42,62.71l6.29-36.68Z"/><path class="cls-5" d="M150.1,261.88l.11-.06-.09-.07Z"/><path class="cls-5" d="M129.68,199l0,0v0Z"/><path class="cls-5" d="M183.15,244.51V160.16h0l-16.53,33.48L129.72,199v0l26.71,26-6.29,36.68.09.07,32.94-17.32Z"/><rect class="cls-5" x="138.16" y="116.11" width="44.99" height="10.53"/><rect class="cls-5" x="151.94" y="306.03" width="31.22" height="10.53"/><path class="cls-6" d="M288.68,114.47,246.47,72.26l-1.24.33-.15,0-1.15.27-.39.08-1,.21-.54.11-.91.18-.66.12-.86.15-.75.12L238,74l-.84.13-.81.12-.92.13-.78.11-1,.13-.74.09-1.11.13-.67.08-1.24.14-.59.06-1.38.14-.48,0-1.53.14-.37,0-1.68.14-.2,0c-12,1-26.32,1.39-40.5,1.36v39.13h45v10.53h-45v33.53A56.19,56.19,0,0,1,236.59,199h0l0,0a56.17,56.17,0,0,1-20.42,62.71l0,.13-.11-.06a55.9,55.9,0,0,1-32.94,10.68V306h31.22v10.53H183.15v51.16c2.32-11.53,15.52-17.43,31.84-22.85l.11,0c2.16-.72,4.38-1.43,6.64-2.14l.21-.07,4.43-1.39.26-.08,4.53-1.44.31-.1q2.26-.73,4.52-1.48l.06,0,2.73-.93q1.95-.67,3.88-1.38t4-1.51l2.3-.92q1.46-.6,2.9-1.22,3.4-1.48,6.64-3.15,3-1.56,5.85-3.31a67.92,67.92,0,0,0,5.66-3.91q1.35-1,2.62-2.14c.77-.67,1.52-1.34,2.24-2a48.37,48.37,0,0,0,3.55-3.86q1-1.24,2-2.55.64-.9,1.24-1.85a42.66,42.66,0,0,0,2.79-5.08c.44-1,.84-2,1.22-3a47.06,47.06,0,0,0,2.51-10.06c.2-1.46.35-3,.44-4.53.06-1.11.1-2.25.1-3.41a98,98,0,0,0-.9-12.64q-.48-3.68-1.18-7.49C277.59,213.84,244.36,149.92,288.68,114.47Z"/><path class="cls-7" d="M183.15,272.51a55.9,55.9,0,0,0,32.94-10.68l-32.94-17.32Z"/><path class="cls-7" d="M199.68,193.65,236.59,199a56.19,56.19,0,0,0-53.44-38.85h0Z"/><path class="cls-7" d="M216.18,261.76A56.17,56.17,0,0,0,236.6,199l-26.71,26Z"/><path class="cls-5" d="M216.21,261.88l0-.13-.09.07Z"/><path class="cls-8" d="M216.21,261.88l0-.13-.09.07Z"/><path class="cls-5" d="M236.63,199h0v0Z"/><path class="cls-8" d="M236.63,199h0v0Z"/><rect class="cls-2" x="183.15" y="116.11" width="44.99" height="10.53"/><rect class="cls-2" x="183.15" y="306.03" width="31.22" height="10.53"/><path class="cls-9" d="M390.76,204.37v-86h36.44a24.42,24.42,0,0,1,11,2.48,28.39,28.39,0,0,1,8.66,6.54,30.9,30.9,0,0,1,5.69,9.2A27.7,27.7,0,0,1,454.57,147a29.85,29.85,0,0,1-1.94,10.59,29.42,29.42,0,0,1-5.45,9.14,26.77,26.77,0,0,1-8.48,6.42,24.51,24.51,0,0,1-10.9,2.42H407.47v28.82Zm16.71-43.47h19.37a9.57,9.57,0,0,0,7.69-3.75q3.09-3.75,3.09-10.17a16.77,16.77,0,0,0-1-5.87,14.32,14.32,0,0,0-2.54-4.42,10.13,10.13,0,0,0-3.69-2.72,10.83,10.83,0,0,0-4.3-.91H407.47Z"/><path class="cls-9" d="M482.66,204.37v-86h38a24.42,24.42,0,0,1,11,2.48,28.4,28.4,0,0,1,8.66,6.54,30.91,30.91,0,0,1,5.69,9.2A27.7,27.7,0,0,1,548,147a28.58,28.58,0,0,1-4.18,15.19A24,24,0,0,1,532.54,172l19.61,32.33H533.39l-17.56-28.82H499.37v28.82Zm16.71-43.47h20.95a8.84,8.84,0,0,0,4.3-1.09,11,11,0,0,0,3.45-3,14.79,14.79,0,0,0,2.3-4.42,17.17,17.17,0,0,0,.85-5.45,15.54,15.54,0,0,0-1-5.57,14.58,14.58,0,0,0-2.6-4.42,11.81,11.81,0,0,0-3.75-2.91,9.77,9.77,0,0,0-4.3-1H499.37Z"/><path class="cls-9" d="M577.7,204.37V186.93H591v17.44Z"/><path class="cls-9" d="M390.76,318.72v-86h36.44a24.42,24.42,0,0,1,11,2.48,28.39,28.39,0,0,1,8.66,6.54,30.9,30.9,0,0,1,5.69,9.2,27.7,27.7,0,0,1,2.06,10.35,29.85,29.85,0,0,1-1.94,10.59,29.42,29.42,0,0,1-5.45,9.14,26.77,26.77,0,0,1-8.48,6.42,24.51,24.51,0,0,1-10.9,2.42H407.47v28.82Zm16.71-43.47h19.37a9.57,9.57,0,0,0,7.69-3.75q3.09-3.75,3.09-10.17a16.77,16.77,0,0,0-1-5.87,14.32,14.32,0,0,0-2.54-4.42,10.13,10.13,0,0,0-3.69-2.72,10.83,10.83,0,0,0-4.3-.91H407.47Z"/><path class="cls-9" d="M519.34,319.32a39,39,0,0,1-17.13-3.69,42,42,0,0,1-13.2-9.81,45.48,45.48,0,0,1-11.56-30.09,43.2,43.2,0,0,1,3.21-16.47,45.44,45.44,0,0,1,8.84-13.92,42.18,42.18,0,0,1,13.38-9.63,39.73,39.73,0,0,1,16.83-3.57,37.76,37.76,0,0,1,17,3.81,42.5,42.5,0,0,1,13.14,10,46,46,0,0,1,8.48,14,44.23,44.23,0,0,1,3,16,43.47,43.47,0,0,1-3.15,16.41,44.59,44.59,0,0,1-8.72,13.8,41.92,41.92,0,0,1-13.32,9.56A39.71,39.71,0,0,1,519.34,319.32ZM494.4,275.73a34.54,34.54,0,0,0,1.69,10.78,28.73,28.73,0,0,0,4.9,9.2,24.36,24.36,0,0,0,7.87,6.42,24.38,24.38,0,0,0,21.31-.06,24.39,24.39,0,0,0,7.87-6.6,29.42,29.42,0,0,0,4.84-9.26,34.38,34.38,0,0,0,1.63-10.47A33.55,33.55,0,0,0,542.77,265a29.75,29.75,0,0,0-5-9.2,23.72,23.72,0,0,0-7.87-6.36,24.52,24.52,0,0,0-21.25.12,23.9,23.9,0,0,0-7.87,6.54,29.36,29.36,0,0,0-4.78,9.2A34.42,34.42,0,0,0,494.4,275.73Z"/><path class="cls-9" d="M590.66,318.72v-86h16.71v71.31H651.2v14.65Z"/><path class="cls-9" d="M677.83,318.72v-86h16.71v86Z"/><path class="cls-9" d="M723.72,275.13a44.52,44.52,0,0,1,2.85-15.56A41.72,41.72,0,0,1,748.18,236a41.15,41.15,0,0,1,17.92-3.75q11.86,0,20.52,5.21A33.27,33.27,0,0,1,799.51,251l-12.83,8.84a22,22,0,0,0-4.12-6.11,20.66,20.66,0,0,0-5.21-3.94,23.41,23.41,0,0,0-5.81-2.12,27.64,27.64,0,0,0-5.93-.67,22.54,22.54,0,0,0-11,2.54,24.11,24.11,0,0,0-7.75,6.6,29.1,29.1,0,0,0-4.66,9.2,34.82,34.82,0,0,0-1.57,10.23,33.38,33.38,0,0,0,1.82,11,29.14,29.14,0,0,0,5.15,9.26,25.71,25.71,0,0,0,8,6.42,21.84,21.84,0,0,0,10.23,2.42,26.94,26.94,0,0,0,6.05-.73,23,23,0,0,0,6-2.3,22.7,22.7,0,0,0,5.27-4.06,18.7,18.7,0,0,0,3.87-6l13.68,7.87a25.84,25.84,0,0,1-5.87,8.54,37.75,37.75,0,0,1-8.6,6.24A43.88,43.88,0,0,1,776,318.11a44.83,44.83,0,0,1-10.65,1.33,36.61,36.61,0,0,1-16.83-3.87,43.8,43.8,0,0,1-13.14-10.11,46.87,46.87,0,0,1-8.6-14.17A44.2,44.2,0,0,1,723.72,275.13Z"/><path class="cls-9" d="M888.14,304.07v14.65H828.45v-86H887V247.4H845.16v20.7h36.2v13.56h-36.2v22.4Z"/></g></g></svg>